# xmcd
#
# Track frame offsets: 
#        210
#        15546
#        31237
#        46063
#        61350
#        75743
#        90151
#        104618
#        119075
#        134649
#        149650
#        165114
#        179538
#        194508
#        210070
#        223589
#        237296
#        251547
#        265778
#        279541
#        293693
#        307431
#
# Disc length: 4278 seconds
#
# Revision: 5
# Processed by: cddbd v1.5.2PL0 Copyright (c) Steve Scherf et al.
# Submitted via: ExactAudioCopyFreeDBPlugin 1.0
#
DISCID=4210b416
DTITLE=The Skillet-Lickers - The Skillet Lickers: Vol 5 1930-1934
DYEAR=2000
DGENRE=Old Time Music
TTITLE0=Taking The Census - Part 1
TTITLE1=Taking The Census - Part 2
TTITLE2=Jeremiah Hopkins' Store At Sand Mountain - Part 1
TTITLE3=Jeremiah Hopkins' Store At Sand Mountain - Part 2
TTITLE4=Ride Old Buck To Water
TTITLE5=Don't You Cry My Honey
TTITLE6=Cacklin' Hen And Rooster Too
TTITLE7=Ricketts Hornpipe
TTITLE8=Bully Of The Town No. 2
TTITLE9=Broken Down Gambler
TTITLE10=Prohibition - Yes Or No - Part 1
TTITLE11=Prohibition - Yes Or No - Part 2
TTITLE12=Fiddlers' Convention - Part 3
TTITLE13=Fiddlers' Convention - Part 4
TTITLE14=Miss McLeods Reel
TTITLE15=Four Cent Cotton
TTITLE16=Molly Put The Kettle On
TTITLE17=Sleeping Lulu
TTITLE18=McMichen's Breakdown (Katy Hill)
TTITLE19=Whistlin' Rufus
TTITLE20=Georgia Waggoner (1934)
TTITLE21=Mississippi Sawyer (1934)
EXTD=Full title: The Skillet-Lickers: "Complete Recorded Works in Chro
EXTD=nological Order, Volume 5: 1930-1934"\nSpine title: The Skillet-L
EXTD=ickers: "Volume 5 (1930-1934)"\nAMG/Amazon title: The Skillet Lic
EXTD=kers: "Skillet Lickers, Vol. 5: 1930-1934"\nPrincipal performers:
EXTD=\n  Gid Tanner: fiddle, banjo, vocals\n  Bert Layne, Clayton McMi
EXTD=chen, Lowe Stokes: fiddles\n  Riley Puckett: guitar, vocals\nLine
EXTD=ups vary among the recording sessions - not all personnel listed 
EXTD=above.\nTracks 1-20 recorded Atlanta US-GA, 1930-04-17/1931-10-24
EXTD=tracks 21-22 recorded San Antonio US-TX, 1934-03-29.\nCD: Docum
EXTD=ent Records DOCD-8060 (2000-11-14), UPC 714298806021.
EXTT0=
EXTT1=
EXTT2=
EXTT3=
EXTT4=
EXTT5=
EXTT6=
EXTT7=
EXTT8=
EXTT9=
EXTT10=
EXTT11=
EXTT12=
EXTT13=
EXTT14=
EXTT15=
EXTT16=
EXTT17=
EXTT18=
EXTT19=
EXTT20=
EXTT21=
PLAYORDER=
